# xmcd
#
# Track frame offsets:
#	150
#	22728
#	45380
#	67457
#	93399
#	116411
#	143910
#	168282
#
# Disc length: 2475 seconds
#
# Revision: 0
# Processed by: cddbd v1.5.2PL0 Copyright (c) Steve Scherf et al.
# Submitted via: audiograbber 1.83.01
#
DISCID=6409a908
DTITLE=The O'Jays - Identify Yourself
DYEAR=1979
DGENRE=Soul
TTITLE0=Sing A Happy Song
TTITLE1=Get On Out And Party
TTITLE2=Identify
TTITLE3=So Nice I Tried It Twice
TTITLE4=Hurry Up and Come Back
TTITLE5=Forever Mine
TTITLE6=I Want You Here With Me
TTITLE7=One In A Million (Girl)
EXTD=
EXTT0=
EXTT1=
EXTT2=
EXTT3=
EXTT4=
EXTT5=
EXTT6=
EXTT7=
PLAYORDER=
